<?xml version="1.0" encoding="utf-8"?>
<!-- Generator: Adobe Illustrator 16.0.0, SVG Export Plug-In . SVG Version: 6.00 Build 0)  -->
<!DOCTYPE svg PUBLIC "-//W3C//DTD SVG 1.1//EN" "http://www.w3.org/Graphics/SVG/1.1/DTD/svg11.dtd">
<svg version="1.1" id="Layer_1" xmlns="http://www.w3.org/2000/svg" xmlns:xlink="http://www.w3.org/1999/xlink" x="0px" y="0px"
	 width="67.92px" height="164.16px" viewBox="0 0 67.92 164.16" enable-background="new 0 0 67.92 164.16" xml:space="preserve">
<g>
	
		<image overflow="visible" opacity="0.5" width="283" height="684" xlink:href="9D0B515DACD78A4E.png"  transform="matrix(0.24 0 0 0.24 0 0)">
	</image>
	<g>
		<path fill="#27AAE1" d="M61.389,31.88c0-14.017-11.286-25.38-25.304-25.38C22.068,6.5,10.59,17.863,10.59,31.88
			c0,12.558,9.365,22.978,20.985,25.014v62.136h-7.951v3.67h7.951v7.339H6.5v6.115h3.669v9.785H6.5v6.116h25.075v5.504h8.562V122.7
			h6.116v-3.67h-6.116V56.895C52.368,54.858,61.389,44.438,61.389,31.88z M19.466,33.889l4.743-2.467l-4.619-2.403
			c1.216-7.093,6.872-12.671,14.007-13.762l2.563,5.31l2.563-5.31c7.039,1.077,12.637,6.517,13.956,13.473l-4.135,2.692l4.271,2.781
			c-0.99,7.169-6.497,12.893-13.558,14.208l-3.098-4.756l-3.097,4.756C25.901,47.076,20.337,41.204,19.466,33.889z"/>
		<path fill="none" stroke="#FFFFFF" stroke-miterlimit="10" d="M61.389,31.88c0-14.017-11.286-25.38-25.304-25.38
			C22.068,6.5,10.59,17.863,10.59,31.88c0,12.558,9.365,22.978,20.985,25.014v62.136h-7.951v3.67h7.951v7.339H6.5v6.115h3.669v9.785
			H6.5v6.116h25.075v5.504h8.562V122.7h6.116v-3.67h-6.116V56.895C52.368,54.858,61.389,44.438,61.389,31.88z M19.466,33.889
			l4.743-2.467l-4.619-2.403c1.216-7.093,6.872-12.671,14.007-13.762l2.563,5.31l2.563-5.31c7.039,1.077,12.637,6.517,13.956,13.473
			l-4.135,2.692l4.271,2.781c-0.99,7.169-6.497,12.893-13.558,14.208l-3.098-4.756l-3.097,4.756
			C25.901,47.076,20.337,41.204,19.466,33.889z"/>
	</g>
</g>
<linearGradient id="SVGID_1_" gradientUnits="userSpaceOnUse" x1="37.0791" y1="59.0957" x2="37.0791" y2="119.0308">
	<stop  offset="0" style="stop-color:#FFFFFF"/>
	<stop  offset="1" style="stop-color:#FFFFFF;stop-opacity:0"/>
</linearGradient>
<rect x="35.855" y="59.096" fill="url(#SVGID_1_)" width="2.446" height="59.935"/>
<linearGradient id="SVGID_2_" gradientUnits="userSpaceOnUse" x1="32.9507" y1="87.8652" x2="35.3975" y2="87.8652">
	<stop  offset="0" style="stop-color:#363D45"/>
	<stop  offset="1" style="stop-color:#4F5963;stop-opacity:0"/>
</linearGradient>
<rect x="32.951" y="56.955" fill="url(#SVGID_2_)" width="2.447" height="61.82"/>
<linearGradient id="SVGID_3_" gradientUnits="userSpaceOnUse" x1="24.6943" y1="120.585" x2="27.1406" y2="120.585">
	<stop  offset="0" style="stop-color:#363D45"/>
	<stop  offset="1" style="stop-color:#4F5963;stop-opacity:0"/>
</linearGradient>
<rect x="24.694" y="118.775" fill="url(#SVGID_3_)" width="2.446" height="3.618"/>
<linearGradient id="SVGID_4_" gradientUnits="userSpaceOnUse" x1="32.9507" y1="126.0889" x2="35.3975" y2="126.0889">
	<stop  offset="0" style="stop-color:#363D45"/>
	<stop  offset="1" style="stop-color:#4F5963;stop-opacity:0"/>
</linearGradient>
<rect x="32.951" y="122.394" fill="url(#SVGID_4_)" width="2.447" height="7.39"/>
<linearGradient id="SVGID_5_" gradientUnits="userSpaceOnUse" x1="7.7998" y1="140.7412" x2="15.1387" y2="140.7412">
	<stop  offset="0" style="stop-color:#363D45"/>
	<stop  offset="1" style="stop-color:#4F5963;stop-opacity:0"/>
</linearGradient>
<polygon fill="url(#SVGID_5_)" points="11.622,130.727 11.316,130.727 7.8,130.727 7.8,135.16 11.316,135.16 11.316,146.322 
	7.8,146.322 7.8,150.756 11.316,150.756 11.622,150.756 15.139,150.756 15.139,130.727 "/>
<linearGradient id="SVGID_6_" gradientUnits="userSpaceOnUse" x1="37.0791" y1="122.7002" x2="37.0791" y2="154.8076">
	<stop  offset="0" style="stop-color:#FFFFFF"/>
	<stop  offset="1" style="stop-color:#FFFFFF;stop-opacity:0"/>
</linearGradient>
<rect x="35.855" y="122.7" opacity="0.5" fill="url(#SVGID_6_)" width="2.446" height="32.107"/>
<linearGradient id="SVGID_7_" gradientUnits="userSpaceOnUse" x1="39.5244" y1="118.7754" x2="39.5244" y2="122.7002">
	<stop  offset="0" style="stop-color:#FFFFFF"/>
	<stop  offset="1" style="stop-color:#FFFFFF;stop-opacity:0"/>
</linearGradient>
<rect x="38.302" y="118.775" fill="url(#SVGID_7_)" width="2.446" height="3.925"/>
<g>
	
		<linearGradient id="SVGID_8_" gradientUnits="userSpaceOnUse" x1="-985.6421" y1="-405.6719" x2="-933.5156" y2="-405.6719" gradientTransform="matrix(-0.7071 0.7071 -0.7071 -0.7071 -929.5141 423.8541)">
		<stop  offset="0" style="stop-color:#FFFFFF"/>
		<stop  offset="1" style="stop-color:#FFFFFF;stop-opacity:0"/>
	</linearGradient>
	<path fill="url(#SVGID_8_)" d="M17.426,13.757c10.163-10.162,26.697-10.162,36.859,0s10.162,26.696,0,36.858
		c-10.162,10.162-26.696,10.162-36.859,0C7.265,40.454,7.265,23.919,17.426,13.757z M51.768,48.099
		c8.774-8.774,8.774-23.05,0-31.824c-8.773-8.774-23.05-8.774-31.824,0c-8.774,8.774-8.774,23.05,0,31.824
		C28.717,56.872,42.994,56.872,51.768,48.099z"/>
</g>
<linearGradient id="SVGID_9_" gradientUnits="userSpaceOnUse" x1="38.9521" y1="11.3545" x2="33.5242" y2="16.7824">
	<stop  offset="0" style="stop-color:#FFFFFF"/>
	<stop  offset="1" style="stop-color:#FFFFFF;stop-opacity:0"/>
</linearGradient>
<polygon fill="url(#SVGID_9_)" points="36.238,8.641 36.238,19.496 38.685,15.183 "/>
<linearGradient id="SVGID_10_" gradientUnits="userSpaceOnUse" x1="-592.7554" y1="605.4902" x2="-598.183" y2="610.9178" gradientTransform="matrix(0 -1 1 0 -589.9062 -564.0312)">
	<stop  offset="0" style="stop-color:#FFFFFF"/>
	<stop  offset="1" style="stop-color:#FFFFFF;stop-opacity:0"/>
</linearGradient>
<polygon fill="url(#SVGID_10_)" points="12.871,31.438 23.726,31.438 19.413,28.992 "/>
<linearGradient id="SVGID_11_" gradientUnits="userSpaceOnUse" x1="48.9756" y1="30.2148" x2="61.4873" y2="30.2148">
	<stop  offset="0" style="stop-color:#FFFFFF"/>
	<stop  offset="1" style="stop-color:#FFFFFF;stop-opacity:0"/>
</linearGradient>
<polygon fill="url(#SVGID_11_)" points="48.976,31.701 52.681,28.729 61.487,30.215 "/>
<linearGradient id="SVGID_12_" gradientUnits="userSpaceOnUse" x1="36.1611" y1="49.1641" x2="40.4824" y2="49.1641">
	<stop  offset="0" style="stop-color:#FFFFFF"/>
	<stop  offset="1" style="stop-color:#FFFFFF;stop-opacity:0"/>
</linearGradient>
<polygon fill="url(#SVGID_12_)" points="36.161,43.653 36.23,54.675 40.482,50.253 "/>
</svg>
